<svg xmlns="http://www.w3.org/2000/svg" viewBox="0 0 24 24" fill="currentColor" width="24" height="24">
  <path d="M12 2.16c3.07 0 3.45.01 4.66.07 1.22.06 2.23.34 3.07 1.17.83.83 1.11 1.85 1.17 3.07.06 1.21.07 1.59.07 4.66s-.01 3.45-.07 4.66c-.06 1.22-.34 2.23-1.17 3.07-.83.83-1.85 1.11-3.07 1.17-1.21.06-1.59.07-4.66.07-3.07 0-3.45-.01-4.66-.07-1.22-.06-2.23-.34-3.07-1.17-.83-.83-1.11-1.85-1.17-3.07-.06-1.21-.07-1.59-.07-4.66s.01-3.45.07-4.66c.06-1.22.34-2.23 1.17-3.07.83-.83 1.85-1.11 3.07-1.17 1.21-.06 1.59-.07 4.66-.07zm0 1.44c-3.03 0-3.36.01-4.54.07-1.06.05-1.71.23-2.21.73-.51.51-.69 1.14-.73 2.21-.06 1.18-.07 1.51-.07 4.54s.01 3.36.07 4.54c.05 1.06.23 1.71.73 2.21.51.51 1.14.69 2.21.73 1.18.06 1.51.07 4.54.07 3.03 0 3.36-.01 4.54-.07 1.06-.05 1.71-.23 2.21-.73.51-.51.69-1.14.73-2.21.06-1.18.07-1.51.07-4.54s-.01-3.36-.07-4.54c-.05-1.06-.23-1.71-.73-2.21-.51-.51-1.14-.69-2.21-.73-1.18-.06-1.51-.07-4.54-.07zM12 5.88c-3.37 0-6.12 2.75-6.12 6.12s2.75 6.12 6.12 6.12 6.12-2.75 6.12-6.12-2.75-6.12-6.12-6.12zm0 10.25c-2.26 0-4.09-1.83-4.09-4.09s1.83-4.09 4.09-4.09 4.09 1.83 4.09 4.09-1.83 4.09-4.09 4.09zm5.35-7.51c-.51 0-.93-.42-.93-.93 0-.51.42-.93.93-.93.51 0 .93.42.93.93 0 .51-.42.93-.93.93z"/>
</svg>
