<svg xmlns="http://www.w3.org/2000/svg" viewBox="0 0 24 24" fill="currentColor" width="24" height="24">
  <path d="M23 3c-.88.39-1.83.65-2.83.77C19.59 3.7 18.3 2 16.56 2c-2.42 0-4.39 1.97-4.39 4.39 0 .34.04.67.11.99-3.65-.18-6.89-1.94-9.06-4.61-.38.65-.59 1.4-.59 2.2 0 1.52.77 2.86 1.95 3.64-1.43-.05-2.78-.44-3.96-1.11-.01.04-.01.08-.01.12 0 2.13 1.51 3.91 3.53 4.31-.37.1-.76.15-1.15.15-.28 0-.56-.03-.83-.08.56 1.75 2.17 3.03 4.09 3.06-1.49 1.17-3.37 1.87-5.4 1.87-1.19 0-2.34-.07-3.48-.22 1.92 1.23 4.2 1.95 6.64 1.95 7.96 0 12.32-6.61 12.32-12.32 0-.19 0-.38-.01-.57C22.29 4.83 22.65 4.11 23 3z"/>
</svg>
